# xmcd
#
# Track frame offsets: 
#        150
#        13420
#        26838
#        40133
#        54263
#        67048
#        81740
#        96850
#        111868
#        126843
#        140380
#        153908
#        166640
#        179320
#        191228
#        204023
#        219040
#        229538
#        242190
#        250353
#        271445
#        284643
#        297685
#        309630
#        321605
#        332950
#
# Disc length: 4582 seconds
#
# Revision: 0
# Processed by: cddbd v1.5.2PL0 Copyright (c) Steve Scherf et al.
# Submitted via: ExactAudioCopy v0.95b3
#
DISCID=9211e41a
DTITLE=Sidney Bechet  - Volume 04 1937-1938 Complete Edition  FLAC
DYEAR=1900
DGENRE=
TTITLE0=Okey Doke
TTITLE1=Characteristic Blues
TTITLE2=Characteristic Blues
TTITLE3=Viper Mad
TTITLE4=Blackstick
TTITLE5=When The Sun Sets Down South
TTITLE6=Sweet Patootie
TTITLE7=Freight Train Blues
TTITLE8=Trixie's Blues
TTITLE9=My Daddy Rocks Me
TTITLE10=My Daddy Rocks Me
TTITLE11=He May Be Your Man
TTITLE12=Jack I'm Mellow
TTITLE13=Uncle Joe
TTITLE14=I'm A Woman
TTITLE15=Toot It Brother Armstrong
TTITLE16=Blue Monday On Sugar Hill
TTITLE17=My Unusual Man
TTITLE18=China Boy
TTITLE19=You Took Advantage Of Me
TTITLE20=What A Dream
TTITLE21=What A Dream
TTITLE22=Hold Tight - Hold Tight (Want Some Sea Food Mama)
TTITLE23=Hold Tight - Hold Tight (Want Some Sea Food Mama)
TTITLE24=Jungle Drums
TTITLE25=Chant In The Night
EXTD=
EXTT0=
EXTT1=
EXTT2=
EXTT3=
EXTT4=
EXTT5=
EXTT6=
EXTT7=
EXTT8=
EXTT9=
EXTT10=
EXTT11=
EXTT12=
EXTT13=
EXTT14=
EXTT15=
EXTT16=
EXTT17=
EXTT18=
EXTT19=
EXTT20=
EXTT21=
EXTT22=
EXTT23=
EXTT24=
EXTT25=
PLAYORDER=
